<svg xmlns="http://www.w3.org/2000/svg" width="582" height="408" xml:space="preserve"><path style="fill:#fec80d" d="m281.5 373.853-57.5-1.47-46.5-1.327-46.967-3.04-46.966-3.04-16.347-6.14-16.346-6.143-2.937-5.818L45 341.057v-9.114l3.119-6.222 3.424-6.562 7.132-2.07 6.825-1.73-.394-22.93-1-32.898-.606-9.97-4.5-1.294-4.5-1.295-4.835-4.237-4.835-4.237.713-7.235.713-7.234 6.457-3.61 6.457-3.612 7.773.688 7.773.688.667-1.738.667-1.739-8.11-29.42-8.108-29.422.696-8.363.697-8.363-3.862-1.016-8.518-2.164-4.654-1.147-4.488-5.54-4.489-5.54-.684-8.217-.685-8.217 2.607-8.548L39.06 90.2l7.856-3.167 7.856-3.167 9.864 4.99 9.864 4.99 4.29 7.04 4.29 7.04-1.534 11.7-1.534 11.7 2.38 3.086L95.134 150.2l10.365 12.7 10 7.469 10 7.47 9.956 2.526 9.956 2.527 6.764-3.696 6.763-3.696 9.042-19.5 9.041-19.5 2.534-24.306 2.533-24.306-3.679-8.194-3.678-8.194-1.002-8.68-1.001-8.681 2.885-4.695 2.886-4.694 7.305-3.375L193.111 38l6.694.005 6.695.005 5.719 4.642 5.718 4.642 2.572 6.729 2.571 6.73-2.165 8.633-2.166 8.634-6.868 3.74-6.868 3.74-.006 11.597-.007 11.597 5.781 16.903 5.781 16.903 10.47 14.81 10.468 14.809 6.977-.642 6.976-.643 8.024-7.39 15.802-14.668 7.779-7.276 9.94-25.399 9.939-25.399-6.969-9.453L289 71.796V54.772l5.003-5.775 5.002-5.774 8.748-2.135 8.747-2.135 8.5 1.522L334.25 42 335 42V69.761l-8.5 7.297-8.5 7.297.011 17.072.012 17.073 6.419 21.347 6.738 21.57 9.32 5.762 10.202 6.21 1.203.67 16.518-8.28 16.518-8.279L398.61 138l15.043-21.595 1.374-2.096-4.411-9.506-4.412-9.506-1.15-5.534-1.148-5.534 3.294-6.68 3.295-6.682 8.796-5.034 8.797-5.033 7.925.701 7.926.702 5.53 6.76 5.531 6.76V89.65l-4.25 5.654-4.25 5.653-6.5 4.667-6.708 4.812-2.794 16.104-2.586 15.959 3.61 14.5 3.608 14.5 3.685 4.294 3.685 4.295 15.012-5.568 15.012-5.567 17.563-22.227 18.152-23.243 1.684-8.883 1.094-7.867 3.49-5.745 3.49-5.745 6.751-1.698 6.752-1.698 7.732 3.768 7.733 3.767 5.097 8.312 5.097 8.31-.708 6.748-.708 6.747-2.336 4.648-2.337 4.648-6.035.602-12.034 1.2-6 .598-9.96 19.772-9.96 19.77-6.423 25.631L494.235 232h7.498l5.194 2.158 5.194 2.159 2.04 3.997 2.039 3.998-.678 6.594-.679 6.594-2.53 3.71-2.53 3.711-5.36 1.558-8.411 2.169-3.486 1.31-1.947 10.62-4.964 25.902-3.053 16.62 3.387 1.24 2.99.598 3.056 6.053 3.056 6.053-1.09 6.256-1.09 6.257-3.185 3.752-3.186 3.753-11 2.965-11 2.965-31 3.984-31 3.985-55 1.517z"/></svg>